<?xml version="1.0" standalone="no"?>
<!DOCTYPE svg PUBLIC "-//W3C//DTD SVG 20010904//EN"
 "http://www.w3.org/TR/2001/REC-SVG-20010904/DTD/svg10.dtd">
<svg version="1.0" xmlns="http://www.w3.org/2000/svg"
 width="2560.000000pt" height="2560.000000pt" viewBox="0 0 2560.000000 2560.000000"
 preserveAspectRatio="xMidYMid meet">

<g transform="translate(0.000000,2560.000000) scale(0.100000,-0.100000)"
fill="#000000" stroke="none">
<path d="M13035 17793 c-317 -12 -685 -78 -955 -170 -109 -37 -314 -120 -393
-160 l-69 -34 -95 41 c-191 82 -442 145 -680 170 -180 20 -524 8 -703 -23
-235 -42 -435 -100 -660 -191 -74 -30 -136 -86 -258 -231 -169 -201 -297 -430
-359 -644 -24 -83 -27 -87 -124 -189 -580 -607 -1012 -1307 -1251 -2025 -150
-452 -226 -861 -247 -1338 -25 -550 43 -1006 238 -1579 132 -391 358 -825 630
-1215 566 -809 1371 -1499 2333 -2000 127 -66 431 -205 448 -205 3 0 17 42 29
93 125 493 419 818 895 986 270 95 556 141 1009 163 268 13 570 3 838 -27
l136 -15 119 -118 c313 -310 736 -486 1253 -523 641 -45 1309 189 1727 606
208 207 340 451 390 720 23 127 15 315 -20 450 -46 177 -148 361 -278 500
l-71 76 17 102 c54 317 21 629 -89 849 -59 117 -92 165 -178 255 -78 82 -137
128 -241 190 l-71 41 -21 -68 c-25 -80 -76 -174 -137 -253 l-45 -57 -17 42
c-63 159 -90 381 -66 549 35 235 157 471 335 648 l74 74 7 -58 c10 -73 -8
-231 -36 -321 -21 -69 -62 -154 -119 -251 -38 -64 -40 -63 110 -29 462 105
897 424 1204 882 73 110 94 134 142 164 142 88 305 319 387 545 77 214 108
435 107 745 l-2 225 31 83 c45 120 64 245 58 372 -5 113 -35 248 -70 319 -20
40 -28 47 -77 62 -157 49 -317 87 -550 129 -85 16 -156 33 -158 38 -9 28 -114
201 -175 287 -210 301 -394 495 -642 679 -188 141 -323 212 -527 280 -197 66
-321 88 -529 93 -245 7 -383 -10 -625 -78 l-111 -32 -134 56 c-337 139 -737
245 -1104 292 -128 16 -440 36 -515 33 -25 -1 -76 -3 -115 -5z m325 -584 c144
-13 366 -50 507 -84 59 -15 329 -100 598 -190 490 -164 776 -248 974 -285 114
-21 264 -41 269 -35 6 5 -158 129 -249 188 -47 31 -119 72 -158 91 -40 19 -68
37 -63 40 33 20 171 38 297 39 370 1 652 -130 973 -449 83 -84 152 -157 152
-162 0 -31 -209 -155 -331 -198 -88 -31 -220 -58 -230 -47 -3 5 -29 58 -56
119 l-49 112 -79 -54 c-232 -156 -552 -233 -852 -205 -125 12 -349 62 -430 96
-21 9 -99 32 -173 52 -120 31 -153 36 -300 40 -194 7 -306 -8 -466 -62 -298
-99 -565 -306 -692 -535 -58 -105 -64 -99 100 -94 79 2 187 6 240 8 l97 4 -44
-58 c-141 -192 -229 -469 -210 -664 l7 -77 88 85 c239 227 556 460 805 592 74
39 325 147 325 140 0 -2 -9 -24 -20 -48 -34 -78 -87 -260 -104 -357 -17 -98
-21 -224 -10 -304 l7 -46 75 107 c108 155 313 356 463 455 192 128 411 214
659 259 189 35 545 31 768 -8 30 -6 32 -9 32 -48 1 -139 72 -304 183 -422 l72
-77 71 36 c121 61 204 82 329 82 126 0 189 -15 275 -67 l55 -34 -2 -84 c-3
-86 -36 -306 -54 -359 -10 -27 -12 -28 -47 -20 -20 5 -103 14 -184 20 -304 25
-711 -36 -1033 -156 -236 -88 -552 -270 -792 -456 -122 -96 -403 -370 -515
-504 -230 -276 -433 -585 -593 -905 -179 -355 -266 -689 -266 -1014 -1 -427
141 -767 444 -1068 l98 -98 -58 21 c-184 68 -364 170 -537 303 -175 136 -292
265 -421 465 -139 215 -251 549 -287 854 l-13 109 -23 -29 c-13 -15 -48 -65
-79 -111 -132 -199 -224 -474 -264 -787 -13 -103 -18 -419 -9 -604 l5 -104
-50 -14 c-268 -71 -583 -98 -850 -73 -443 42 -799 197 -1116 487 -226 206
-350 372 -495 663 -183 368 -253 721 -241 1218 7 311 43 566 117 830 16 58 28
108 26 109 -2 2 -40 -36 -85 -85 -309 -337 -532 -754 -606 -1131 -38 -198 -46
-273 -46 -466 0 -425 90 -788 297 -1195 41 -80 103 -190 139 -245 73 -112 190
-324 182 -331 -7 -7 -207 127 -283 191 -275 230 -502 527 -666 875 -98 207
-202 554 -249 830 -11 69 -22 126 -23 128 -5 4 -54 -187 -76 -293 -38 -186
-62 -405 -69 -635 l-6 -224 -52 109 c-28 61 -81 188 -117 282 -245 642 -312
1282 -205 1943 72 438 257 951 488 1355 96 166 283 442 376 553 2 2 32 -18 68
-43 88 -61 272 -148 382 -180 80 -23 366 -78 372 -71 2 1 -26 26 -61 55 -112
93 -235 256 -287 381 -55 130 -70 202 -76 360 -4 123 -2 161 17 250 38 184
129 394 251 581 66 100 73 104 269 169 259 86 529 117 778 89 295 -32 583
-132 805 -281 l57 -39 98 65 c301 201 750 347 1162 379 106 8 394 6 500 -4z
m3707 -2938 c209 -43 315 -156 284 -301 -30 -137 -192 -373 -338 -492 -88 -71
-125 -95 -119 -77 34 101 134 471 130 482 -20 53 -172 47 -511 -18 -138 -27
-203 -31 -234 -15 -10 6 -31 34 -45 61 -14 28 -27 49 -29 47 -2 -1 -43 -55
-92 -118 -48 -63 -109 -142 -135 -175 -26 -33 -94 -122 -152 -198 l-105 -139
5 104 c3 56 12 179 19 271 12 154 15 173 44 231 58 117 189 216 368 275 208
69 709 103 910 62z m-586 -2733 c8 -37 14 -119 14 -198 -1 -110 -5 -150 -23
-215 -30 -103 -98 -247 -157 -329 -53 -75 -14 -62 -385 -126 -129 -23 -311
-54 -405 -70 -329 -58 -480 -31 -620 109 -48 48 -115 157 -115 188 0 5 21 19
46 31 161 79 396 273 558 462 l39 45 -7 -105 c-8 -131 -34 -261 -74 -364 -17
-44 -30 -81 -29 -82 1 -2 171 15 377 37 417 44 373 31 469 133 118 124 250
366 276 509 4 20 11 37 15 37 4 0 14 -28 21 -62z m64 -1459 c9 -74 -15 -183
-60 -267 -224 -427 -935 -622 -1355 -373 -202 120 -282 348 -196 555 l14 35
69 -24 c328 -113 790 -74 1377 119 148 48 139 51 151 -45z"/>
<path d="M10189 16373 c-6 -16 -22 -71 -37 -123 -22 -82 -25 -116 -26 -250 0
-176 11 -235 72 -360 44 -90 145 -200 242 -265 65 -43 229 -120 237 -111 5 4
10 43 59 416 15 113 30 213 33 222 4 12 35 -37 101 -162 52 -99 98 -180 102
-180 3 0 75 73 160 163 84 89 183 193 221 231 l68 68 -27 40 c-82 118 -292
235 -519 289 -127 30 -325 49 -508 49 l-167 0 -11 -27z"/>
</g>
</svg>
