<?xml version="1.0" standalone="no"?>
<!DOCTYPE svg PUBLIC "-//W3C//DTD SVG 20010904//EN"
 "http://www.w3.org/TR/2001/REC-SVG-20010904/DTD/svg10.dtd">
<svg version="1.0" xmlns="http://www.w3.org/2000/svg"
 width="2560.000000pt" height="2560.000000pt" viewBox="0 0 2560.000000 2560.000000"
 preserveAspectRatio="xMidYMid meet">

<g transform="translate(0.000000,2560.000000) scale(0.100000,-0.100000)"
fill="#000000" stroke="none">
<path d="M20434 15070 c-104 -15 -231 -48 -319 -85 l-85 -35 -87 30 c-211 70
-434 63 -665 -21 -46 -17 -71 -35 -111 -80 -62 -67 -120 -163 -143 -234 -12
-35 -39 -74 -89 -130 -264 -293 -425 -610 -492 -968 -27 -143 -24 -459 5 -594
124 -573 561 -1092 1181 -1403 67 -33 126 -58 130 -55 5 2 14 26 21 52 30 120
125 241 235 300 150 78 414 115 683 94 l122 -10 61 -55 c343 -310 994 -207
1193 189 72 145 53 298 -55 445 l-34 45 0 135 0 136 -38 76 c-37 76 -88 132
-149 164 -27 14 -27 13 -47 -31 -11 -25 -29 -57 -39 -70 l-19 -25 -17 58 c-22
79 -20 156 5 231 21 63 101 181 128 189 25 8 6 -114 -28 -183 -17 -33 -29 -60
-28 -61 9 -7 128 34 194 66 96 47 228 165 289 258 21 31 44 61 51 65 71 43
141 156 169 273 9 38 18 121 19 184 2 69 10 135 19 164 20 63 20 128 -2 191
-19 56 -25 59 -200 94 -51 10 -94 20 -96 22 -1 2 -27 42 -58 90 -127 197 -291
326 -479 379 -99 27 -257 28 -353 1 -68 -19 -70 -19 -113 0 -70 30 -230 77
-323 94 -100 19 -349 28 -436 15z m371 -225 c44 -9 172 -48 285 -85 192 -65
361 -110 411 -110 21 0 21 1 6 18 -10 10 -47 36 -84 58 -60 35 -64 39 -42 45
42 12 142 9 195 -5 82 -22 172 -76 242 -145 l66 -64 -25 -20 c-30 -25 -114
-63 -155 -70 -30 -6 -33 -3 -48 38 l-17 44 -47 -29 c-126 -76 -292 -87 -461
-29 -91 32 -176 41 -255 29 -134 -20 -280 -112 -335 -210 l-23 -42 90 3 90 4
-18 -25 c-51 -73 -89 -195 -75 -240 5 -17 17 -10 93 54 48 40 107 86 132 103
53 36 210 116 216 110 2 -2 -5 -30 -16 -61 -23 -69 -37 -181 -23 -189 6 -4 31
20 57 53 79 103 201 181 336 216 69 18 238 24 301 11 33 -7 37 -11 43 -48 8
-48 25 -85 61 -127 l26 -31 47 22 c58 26 143 28 193 4 l35 -17 -8 -77 c-5 -42
-10 -79 -13 -81 -3 -3 -67 -6 -142 -7 -104 -2 -157 -7 -215 -23 -284 -77 -511
-252 -707 -544 -244 -365 -264 -685 -56 -916 44 -48 45 -51 19 -42 -232 88
-390 290 -435 554 l-12 70 -20 -25 c-28 -34 -82 -154 -98 -219 -8 -33 -14
-113 -14 -203 l0 -148 -35 -9 c-132 -34 -289 -34 -426 1 -234 59 -432 261
-512 521 -48 156 -53 378 -12 562 11 50 20 92 20 95 0 13 -66 -61 -109 -123
-221 -321 -213 -663 23 -1045 25 -41 44 -77 41 -79 -3 -3 -29 11 -57 31 -182
125 -328 371 -370 620 -6 37 -15 64 -19 60 -17 -17 -40 -161 -46 -280 l-6
-122 -24 51 c-38 83 -80 207 -104 314 -32 140 -32 393 -1 541 43 198 139 419
253 576 l53 74 70 -37 c57 -30 183 -70 222 -70 4 0 -14 23 -40 50 -26 28 -59
76 -74 108 -36 76 -38 206 -4 296 30 83 82 165 113 182 101 52 317 71 443 38
56 -14 184 -72 213 -95 7 -7 13 -6 18 0 10 17 128 80 191 101 57 20 157 44
219 54 60 9 282 -3 360 -19z m1208 -1055 c66 -10 114 -40 123 -76 10 -38 -46
-142 -107 -199 -27 -26 -53 -45 -55 -42 -3 3 5 39 17 80 12 42 19 83 16 91 -8
20 -37 20 -142 1 -111 -20 -123 -19 -137 9 -12 28 4 44 -142 -145 l-49 -64 6
96 c3 59 11 109 21 127 34 66 124 108 261 121 116 12 124 12 188 1z m-195
-1083 c-4 -71 -43 -182 -73 -207 -15 -12 -333 -70 -384 -70 -67 0 -161 66
-161 112 0 8 19 25 42 38 22 13 75 55 116 94 l75 71 -7 -59 c-4 -32 -14 -76
-22 -99 l-14 -40 72 7 c221 21 200 15 242 59 40 42 96 147 96 182 1 19 1 19
11 2 6 -11 9 -50 7 -90z m20 -462 c9 -77 -68 -177 -178 -229 -61 -29 -73 -31
-176 -31 -105 0 -113 1 -159 30 -63 39 -89 83 -88 148 1 63 11 73 60 56 65
-23 240 -17 363 14 58 14 116 30 130 36 35 14 44 9 48 -24z"/>
<path d="M19499 14543 c-6 -16 -14 -60 -16 -99 -7 -95 13 -157 70 -211 44 -43
123 -88 130 -75 3 4 10 53 17 110 7 56 15 104 19 106 4 3 22 -23 41 -56 l33
-61 78 84 c43 46 78 89 79 96 0 17 -58 63 -108 85 -58 26 -179 48 -263 48 -66
0 -70 -1 -80 -27z"/>
<path d="M8115 15044 c-339 -61 -535 -254 -611 -604 -18 -80 -19 -152 -19
-1180 0 -1028 1 -1100 19 -1180 93 -428 383 -639 850 -617 152 7 253 30 359
82 195 95 318 261 379 513 21 83 22 115 25 755 l4 667 -395 0 -396 0 0 -250 0
-250 136 0 135 0 -3 -402 c-4 -455 -5 -462 -83 -544 -66 -69 -188 -93 -306
-58 -69 20 -127 78 -154 154 -19 53 -20 90 -23 1090 -2 745 0 1054 8 1102 17
101 60 166 135 203 52 26 71 30 140 30 69 0 88 -4 140 -30 48 -24 66 -40 91
-82 44 -74 54 -140 54 -365 l0 -198 261 0 261 0 -5 248 c-5 268 -17 348 -72
485 -78 194 -231 337 -430 400 -142 46 -347 58 -500 31z"/>
<path d="M15085 15044 c-190 -35 -298 -87 -416 -204 -74 -72 -93 -99 -132
-180 -25 -52 -56 -133 -69 -180 l-23 -85 0 -1135 0 -1135 23 -85 c90 -328 291
-510 621 -565 133 -23 328 -16 446 14 220 57 383 189 476 386 53 114 78 218
89 380 13 182 13 1828 0 2010 -12 169 -36 269 -97 395 -79 165 -238 299 -419
355 -142 44 -349 56 -499 29z m311 -509 c92 -38 140 -123 155 -269 11 -120 11
-1894 -1 -2015 -19 -198 -108 -290 -280 -290 -121 0 -195 42 -243 139 l-32 65
0 1095 0 1095 23 50 c52 113 135 159 273 150 37 -2 84 -11 105 -20z"/>
<path d="M9480 13260 l0 -1750 273 2 272 3 3 1748 2 1747 -275 0 -275 0 0
-1750z"/>
<path d="M10440 13259 l0 -1750 528 3 527 4 96 26 c271 74 439 240 509 503 32
121 46 398 32 633 -13 213 -31 301 -87 413 -60 119 -193 241 -287 264 -16 4
-28 11 -28 15 0 5 24 21 53 38 157 89 249 239 282 461 19 125 19 407 0 533
-27 183 -84 307 -185 408 -75 76 -151 119 -270 153 -140 41 -235 47 -717 47
l-453 0 0 -1751z m938 1227 c56 -24 107 -85 129 -155 15 -47 18 -93 18 -276 0
-264 -10 -309 -85 -386 -61 -63 -114 -78 -302 -86 l-148 -6 0 467 0 468 173
-4 c137 -3 181 -8 215 -22z m48 -1438 c100 -53 139 -132 154 -316 20 -244 7
-493 -30 -580 -51 -117 -116 -142 -377 -142 l-183 0 0 536 0 536 193 -4 c185
-3 194 -4 243 -30z"/>
<path d="M12460 13259 l0 -1750 528 3 527 4 96 26 c271 74 439 240 509 503 32
121 46 398 32 633 -13 213 -31 301 -87 413 -60 119 -193 241 -287 264 -16 4
-28 11 -28 15 0 5 24 21 53 38 157 89 249 239 282 461 19 125 19 407 0 533
-27 183 -84 307 -185 408 -75 76 -151 119 -270 153 -140 41 -235 47 -717 47
l-453 0 0 -1751z m938 1227 c56 -24 107 -85 129 -155 15 -47 18 -93 18 -276 0
-264 -10 -309 -85 -386 -61 -63 -114 -78 -302 -86 l-148 -6 0 467 0 468 173
-4 c137 -3 181 -8 215 -22z m48 -1438 c100 -53 139 -132 154 -316 20 -244 7
-493 -30 -580 -51 -117 -116 -142 -377 -142 l-183 0 0 536 0 536 193 -4 c185
-3 194 -4 243 -30z"/>
<path d="M16480 13261 l0 -1751 273 2 272 3 3 749 2 748 148 -4 c155 -5 203
-16 268 -59 46 -32 91 -124 104 -214 5 -38 10 -272 10 -520 1 -448 6 -552 35
-652 l16 -53 278 0 279 0 -18 59 c-32 101 -40 238 -40 666 0 229 -5 459 -10
513 -29 268 -121 434 -284 512 -36 17 -66 33 -66 35 0 2 24 16 53 33 139 79
220 192 267 372 48 180 48 618 0 805 -55 220 -184 369 -381 443 -141 52 -170
55 -706 59 l-503 4 0 -1750z m933 1220 c59 -29 101 -87 124 -173 22 -83 25
-483 4 -568 -27 -109 -68 -162 -156 -202 -43 -19 -71 -23 -202 -26 l-153 -4 0
502 0 502 168 -4 c151 -3 172 -5 215 -27z"/>
</g>
</svg>
