<?xml version="1.0" standalone="no"?>
<!DOCTYPE svg PUBLIC "-//W3C//DTD SVG 20010904//EN"
 "http://www.w3.org/TR/2001/REC-SVG-20010904/DTD/svg10.dtd">
<svg version="1.0" xmlns="http://www.w3.org/2000/svg"
 width="2559.000000pt" height="853.000000pt" viewBox="0 0 2559.000000 853.000000"
 preserveAspectRatio="xMidYMid meet">

<g transform="translate(0.000000,853.000000) scale(0.100000,-0.100000)"
fill="#000000" stroke="none">
<path d="M2145 8473 c-410 -34 -704 -125 -969 -300 -135 -89 -318 -272 -409
-409 -173 -260 -277 -570 -325 -967 -16 -131 -17 -325 -14 -2497 1 -1505 6
-2397 13 -2470 54 -605 278 -1066 664 -1366 316 -245 772 -367 1310 -351 300
9 517 48 750 136 527 199 885 646 1010 1265 60 296 58 240 62 1839 l4 1467
-926 0 -925 0 0 -585 0 -585 321 0 320 0 -4 -892 c-3 -862 -4 -896 -24 -983
-30 -127 -56 -192 -113 -272 -102 -146 -253 -218 -485 -230 -90 -4 -129 -1
-215 17 -260 53 -393 196 -463 495 -21 90 -21 93 -25 2400 -2 1498 1 2356 7
2440 19 248 82 416 196 528 115 112 254 161 460 161 148 0 219 -15 330 -68
165 -79 254 -211 312 -461 13 -58 17 -156 20 -557 l5 -488 605 0 605 0 -5 483
c-6 501 -12 599 -57 831 -136 704 -567 1182 -1215 1349 -240 62 -576 91 -820
70z"/>
<path d="M18345 8473 c-549 -45 -936 -208 -1237 -520 -104 -109 -161 -185
-234 -313 -118 -210 -198 -453 -246 -750 l-23 -145 0 -2450 0 -2450 23 -145
c80 -494 239 -830 524 -1108 259 -252 593 -402 1038 -464 127 -17 573 -17 700
0 433 61 774 212 1032 460 287 276 449 621 530 1132 l23 145 0 2425 c0 2287
-1 2432 -18 2545 -43 288 -101 489 -196 691 -271 568 -769 882 -1496 944 -112
9 -328 11 -420 3z m311 -1164 c146 -20 273 -79 356 -166 88 -92 157 -261 177
-438 15 -122 15 -4693 1 -4820 -37 -324 -189 -523 -450 -592 -91 -24 -310 -23
-405 1 -91 24 -195 79 -251 132 -101 98 -170 255 -194 439 -8 67 -10 705 -8
2485 l3 2395 27 97 c39 140 79 218 155 299 134 141 346 202 589 168z"/>
<path d="M5060 4290 l0 -4070 640 0 640 0 0 4070 0 4070 -640 0 -640 0 0
-4070z"/>
<path d="M7292 4290 l-2 -4071 1112 6 c612 3 1163 10 1223 16 230 21 516 94
693 176 249 116 470 301 611 512 155 233 241 470 292 811 23 150 24 176 24
750 0 635 -5 728 -51 955 -102 508 -333 835 -724 1028 -58 29 -120 57 -137 64
-18 6 -33 17 -33 25 1 7 42 33 92 58 113 55 266 168 343 252 194 211 309 494
362 888 26 197 27 967 0 1145 -39 266 -88 444 -167 613 -200 422 -550 679
-1074 786 -243 50 -219 49 -1422 53 l-1140 4 -2 -4071z m2124 2883 c157 -44
258 -130 328 -276 87 -180 100 -294 93 -819 -4 -346 -7 -404 -24 -483 -72
-323 -256 -495 -574 -535 -46 -5 -213 -10 -371 -10 l-288 0 -1 40 c0 22 0 135
0 250 0 116 0 582 0 1036 l1 825 383 -3 c347 -4 388 -6 453 -25z m14 -3311
c107 -24 233 -82 297 -137 101 -87 178 -249 216 -459 21 -116 22 -146 22 -706
0 -567 -1 -588 -22 -685 -45 -202 -145 -349 -285 -417 -124 -61 -133 -62 -625
-66 -369 -3 -453 -1 -454 10 -1 7 -1 139 0 293 0 154 1 711 1 1238 l0 959 378
-5 c335 -4 388 -7 472 -25z"/>
<path d="M11990 4290 l0 -4071 1113 6 c633 3 1159 10 1222 16 154 14 381 61
505 104 258 89 455 209 623 378 266 266 421 623 472 1083 21 185 25 1186 6
1374 -61 603 -269 995 -656 1237 -46 30 -141 75 -242 118 -24 10 -43 22 -43
26 0 4 48 33 108 64 362 188 571 488 665 955 45 221 52 325 51 755 -1 431 -11
568 -58 795 -44 209 -138 436 -246 595 -127 186 -325 351 -541 449 -190 86
-482 156 -728 175 -83 7 -546 11 -1193 11 l-1058 0 0 -4070z m2115 2886 c99
-28 166 -67 236 -136 107 -106 163 -249 188 -482 14 -125 14 -700 1 -826 -37
-341 -176 -549 -423 -633 -114 -39 -223 -49 -539 -49 l-298 0 0 1076 0 1075
388 -3 c329 -4 396 -7 447 -22z m18 -3314 c252 -54 403 -191 480 -437 56 -178
62 -261 62 -850 0 -408 -3 -562 -14 -630 -45 -297 -171 -461 -407 -531 -51
-15 -117 -18 -516 -21 l-458 -4 0 1251 0 1252 378 -5 c332 -4 389 -7 475 -25z"/>
<path d="M21340 4290 l0 -4070 640 0 640 0 0 1745 0 1745 283 0 c313 0 428
-12 543 -55 174 -65 288 -190 348 -380 60 -187 58 -155 66 -1350 5 -724 11
-1143 19 -1225 14 -146 41 -289 76 -398 l24 -77 652 -3 c528 -2 651 0 647 10
-32 81 -71 209 -83 269 -47 234 -48 245 -55 1409 -7 1181 -8 1210 -61 1475
-23 117 -97 343 -141 429 -73 145 -193 293 -307 379 -65 49 -208 125 -288 153
-29 10 -53 23 -53 29 0 6 35 27 78 47 357 167 587 477 697 938 55 232 60 310
60 890 0 461 -2 552 -18 655 -39 266 -88 444 -167 613 -199 421 -551 679
-1070 786 -247 50 -222 49 -1407 53 l-1123 4 0 -4071z m2075 2886 c95 -27 165
-65 228 -125 93 -89 141 -183 179 -353 19 -85 21 -132 25 -573 6 -619 -4 -716
-93 -902 -34 -71 -60 -108 -112 -161 -152 -154 -364 -202 -824 -186 l-198 7 0
1159 0 1160 368 -4 c308 -4 377 -7 427 -22z"/>
</g>
</svg>
